<mxfile host="app.diagrams.net" modified="2021-05-21T04:28:33.331Z" agent="5.0 (Windows NT 10.0; WOW64) AppleWebKit/537.36 (KHTML, like Gecko) Chrome/86.0.4240.198 Safari/537.36" etag="BuZGUn1eeRwtLIQ4pgvo" version="14.6.13" type="github">
  <diagram id="C5RBs43oDa-KdzZeNtuy" name="Page-1">
    <mxGraphModel dx="1052" dy="592" grid="1" gridSize="10" guides="1" tooltips="1" connect="1" arrows="1" fold="1" page="1" pageScale="1" pageWidth="827" pageHeight="1169" background="none" math="0" shadow="0">
      <root>
        <mxCell id="WIyWlLk6GJQsqaUBKTNV-0" />
        <mxCell id="WIyWlLk6GJQsqaUBKTNV-1" parent="WIyWlLk6GJQsqaUBKTNV-0" />
        <mxCell id="vZys97lywLCh6BthRGPR-5" style="edgeStyle=orthogonalEdgeStyle;rounded=0;orthogonalLoop=1;jettySize=auto;html=1;exitX=0.5;exitY=1;exitDx=0;exitDy=0;entryX=0.5;entryY=0;entryDx=0;entryDy=0;fontFamily=Times New Roman;" edge="1" parent="WIyWlLk6GJQsqaUBKTNV-1" source="WIyWlLk6GJQsqaUBKTNV-3" target="vZys97lywLCh6BthRGPR-0">
          <mxGeometry relative="1" as="geometry" />
        </mxCell>
        <mxCell id="WIyWlLk6GJQsqaUBKTNV-3" value="开始" style="rounded=1;whiteSpace=wrap;html=1;fontSize=12;glass=0;strokeWidth=1;shadow=0;fontFamily=Times New Roman;" parent="WIyWlLk6GJQsqaUBKTNV-1" vertex="1">
          <mxGeometry x="375" y="20" width="70" height="40" as="geometry" />
        </mxCell>
        <mxCell id="vZys97lywLCh6BthRGPR-4" style="edgeStyle=orthogonalEdgeStyle;rounded=0;orthogonalLoop=1;jettySize=auto;html=1;exitX=0.5;exitY=1;exitDx=0;exitDy=0;fontFamily=Times New Roman;" edge="1" parent="WIyWlLk6GJQsqaUBKTNV-1" source="vZys97lywLCh6BthRGPR-0" target="vZys97lywLCh6BthRGPR-3">
          <mxGeometry relative="1" as="geometry" />
        </mxCell>
        <mxCell id="vZys97lywLCh6BthRGPR-0" value="k-means++初始化聚类中心" style="rounded=0;whiteSpace=wrap;html=1;fontFamily=Times New Roman;" vertex="1" parent="WIyWlLk6GJQsqaUBKTNV-1">
          <mxGeometry x="325" y="88" width="170" height="40" as="geometry" />
        </mxCell>
        <mxCell id="vZys97lywLCh6BthRGPR-7" style="edgeStyle=orthogonalEdgeStyle;rounded=0;orthogonalLoop=1;jettySize=auto;html=1;exitX=0.5;exitY=1;exitDx=0;exitDy=0;entryX=0.5;entryY=0;entryDx=0;entryDy=0;fontFamily=Times New Roman;" edge="1" parent="WIyWlLk6GJQsqaUBKTNV-1" source="vZys97lywLCh6BthRGPR-3" target="vZys97lywLCh6BthRGPR-6">
          <mxGeometry relative="1" as="geometry" />
        </mxCell>
        <mxCell id="vZys97lywLCh6BthRGPR-3" value="Mapper：&lt;br&gt;1、读取聚类中心向量&lt;br&gt;2、针对每个记录，计算其与聚类中心的距离&lt;br&gt;3、找到距离最小的聚类中心下标，输出&amp;lt;聚类中心下标，该记录&amp;gt;" style="shape=process;whiteSpace=wrap;html=1;backgroundOutline=1;fontFamily=Times New Roman;size=0.030303030303030304;align=left;" vertex="1" parent="WIyWlLk6GJQsqaUBKTNV-1">
          <mxGeometry x="175" y="152" width="470" height="70" as="geometry" />
        </mxCell>
        <mxCell id="vZys97lywLCh6BthRGPR-11" value="" style="edgeStyle=orthogonalEdgeStyle;rounded=0;orthogonalLoop=1;jettySize=auto;html=1;fontFamily=Times New Roman;" edge="1" parent="WIyWlLk6GJQsqaUBKTNV-1" source="vZys97lywLCh6BthRGPR-6" target="vZys97lywLCh6BthRGPR-10">
          <mxGeometry relative="1" as="geometry" />
        </mxCell>
        <mxCell id="vZys97lywLCh6BthRGPR-6" value="Reducer：&lt;br&gt;针对每组聚类中心id，计算所有值的和以及个数，输出&amp;lt;聚类中心id，新的聚类中心向量&amp;gt;" style="shape=process;whiteSpace=wrap;html=1;backgroundOutline=1;fontFamily=Times New Roman;size=0.030303030303030304;align=left;" vertex="1" parent="WIyWlLk6GJQsqaUBKTNV-1">
          <mxGeometry x="175" y="250" width="470" height="60" as="geometry" />
        </mxCell>
        <mxCell id="vZys97lywLCh6BthRGPR-12" style="edgeStyle=orthogonalEdgeStyle;rounded=0;orthogonalLoop=1;jettySize=auto;html=1;exitX=0;exitY=0.5;exitDx=0;exitDy=0;entryX=0;entryY=0.5;entryDx=0;entryDy=0;fontFamily=Times New Roman;" edge="1" parent="WIyWlLk6GJQsqaUBKTNV-1" source="vZys97lywLCh6BthRGPR-10" target="vZys97lywLCh6BthRGPR-3">
          <mxGeometry relative="1" as="geometry" />
        </mxCell>
        <mxCell id="vZys97lywLCh6BthRGPR-13" value="否" style="edgeLabel;html=1;align=center;verticalAlign=middle;resizable=0;points=[];fontFamily=Times New Roman;" vertex="1" connectable="0" parent="vZys97lywLCh6BthRGPR-12">
          <mxGeometry x="0.2249" relative="1" as="geometry">
            <mxPoint as="offset" />
          </mxGeometry>
        </mxCell>
        <mxCell id="vZys97lywLCh6BthRGPR-15" value="" style="edgeStyle=orthogonalEdgeStyle;rounded=0;orthogonalLoop=1;jettySize=auto;html=1;fontFamily=Times New Roman;" edge="1" parent="WIyWlLk6GJQsqaUBKTNV-1" source="vZys97lywLCh6BthRGPR-10" target="vZys97lywLCh6BthRGPR-14">
          <mxGeometry relative="1" as="geometry" />
        </mxCell>
        <mxCell id="vZys97lywLCh6BthRGPR-10" value="是否满足阈值条件?&lt;br&gt;or&lt;br&gt;&lt;div&gt;&lt;span&gt;是否达到最大迭代次数?&lt;/span&gt;&lt;/div&gt;" style="rhombus;whiteSpace=wrap;html=1;fontFamily=Times New Roman;align=center;" vertex="1" parent="WIyWlLk6GJQsqaUBKTNV-1">
          <mxGeometry x="285" y="340" width="250" height="80" as="geometry" />
        </mxCell>
        <mxCell id="vZys97lywLCh6BthRGPR-19" value="" style="edgeStyle=orthogonalEdgeStyle;rounded=0;orthogonalLoop=1;jettySize=auto;html=1;fontFamily=Times New Roman;" edge="1" parent="WIyWlLk6GJQsqaUBKTNV-1" source="vZys97lywLCh6BthRGPR-14" target="vZys97lywLCh6BthRGPR-18">
          <mxGeometry relative="1" as="geometry" />
        </mxCell>
        <mxCell id="vZys97lywLCh6BthRGPR-24" style="edgeStyle=orthogonalEdgeStyle;rounded=0;orthogonalLoop=1;jettySize=auto;html=1;exitX=0;exitY=0.5;exitDx=0;exitDy=0;entryX=0.5;entryY=0;entryDx=0;entryDy=0;fontFamily=Times New Roman;" edge="1" parent="WIyWlLk6GJQsqaUBKTNV-1" source="vZys97lywLCh6BthRGPR-14" target="vZys97lywLCh6BthRGPR-22">
          <mxGeometry relative="1" as="geometry" />
        </mxCell>
        <mxCell id="vZys97lywLCh6BthRGPR-25" value="否" style="edgeLabel;html=1;align=center;verticalAlign=middle;resizable=0;points=[];fontFamily=Times New Roman;" vertex="1" connectable="0" parent="vZys97lywLCh6BthRGPR-24">
          <mxGeometry x="-0.1842" y="-2" relative="1" as="geometry">
            <mxPoint as="offset" />
          </mxGeometry>
        </mxCell>
        <mxCell id="vZys97lywLCh6BthRGPR-14" value="是否分类?" style="rhombus;whiteSpace=wrap;html=1;fontFamily=Times New Roman;" vertex="1" parent="WIyWlLk6GJQsqaUBKTNV-1">
          <mxGeometry x="320" y="450" width="180" height="60" as="geometry" />
        </mxCell>
        <mxCell id="vZys97lywLCh6BthRGPR-16" value="是" style="text;html=1;strokeColor=none;fillColor=none;align=center;verticalAlign=middle;whiteSpace=wrap;rounded=0;fontFamily=Times New Roman;" vertex="1" parent="WIyWlLk6GJQsqaUBKTNV-1">
          <mxGeometry x="403" y="423" width="40" height="20" as="geometry" />
        </mxCell>
        <mxCell id="vZys97lywLCh6BthRGPR-23" style="edgeStyle=orthogonalEdgeStyle;rounded=0;orthogonalLoop=1;jettySize=auto;html=1;exitX=0;exitY=0.5;exitDx=0;exitDy=0;entryX=1;entryY=0.5;entryDx=0;entryDy=0;fontFamily=Times New Roman;" edge="1" parent="WIyWlLk6GJQsqaUBKTNV-1" source="vZys97lywLCh6BthRGPR-18" target="vZys97lywLCh6BthRGPR-22">
          <mxGeometry relative="1" as="geometry" />
        </mxCell>
        <mxCell id="vZys97lywLCh6BthRGPR-18" value="根据聚类中心向量进行分类" style="whiteSpace=wrap;html=1;fontFamily=Times New Roman;" vertex="1" parent="WIyWlLk6GJQsqaUBKTNV-1">
          <mxGeometry x="320" y="545" width="180" height="40" as="geometry" />
        </mxCell>
        <mxCell id="vZys97lywLCh6BthRGPR-20" value="是" style="text;html=1;strokeColor=none;fillColor=none;align=center;verticalAlign=middle;whiteSpace=wrap;rounded=0;fontFamily=Times New Roman;" vertex="1" parent="WIyWlLk6GJQsqaUBKTNV-1">
          <mxGeometry x="405" y="516" width="40" height="20" as="geometry" />
        </mxCell>
        <mxCell id="vZys97lywLCh6BthRGPR-22" value="结束" style="rounded=1;whiteSpace=wrap;html=1;fontSize=12;glass=0;strokeWidth=1;shadow=0;fontFamily=Times New Roman;" vertex="1" parent="WIyWlLk6GJQsqaUBKTNV-1">
          <mxGeometry x="190" y="545" width="70" height="40" as="geometry" />
        </mxCell>
      </root>
    </mxGraphModel>
  </diagram>
</mxfile>
